<?xml version="1.0" encoding="utf-8"?>
<!-- Generator: Adobe Illustrator 22.0.0, SVG Export Plug-In . SVG Version: 6.00 Build 0)  -->
<svg version="1.1" id="Layer_1" xmlns="http://www.w3.org/2000/svg" xmlns:xlink="http://www.w3.org/1999/xlink" x="0px" y="0px"
	 viewBox="0 0 32 32" style="enable-background:new 0 0 32 32;" xml:space="preserve">
<style type="text/css">
	.st0{fill:#56534C;}
</style>
<path class="st0" d="M32,16c0,8.8-7.2,16-16,16S0,24.8,0,16S7.2,0,16,0S32,7.2,32,16z M16,2C8.3,2,2,8.3,2,16s6.3,14,14,14
	s14-6.3,14-14S23.7,2,16,2z M19.9,15.6C19.9,15.6,19.8,15.6,19.9,15.6C19.8,15.6,19.8,15.5,19.9,15.6c-0.1-0.1-0.1-0.1-0.1-0.1
	l-5.6-5.3c-0.3-0.3-0.7-0.3-1,0c0,0,0,0,0,0c-0.2,0.3-0.2,0.7,0,0.9l5.1,4.9l-5.1,4.9c-0.3,0.2-0.3,0.7,0,0.9c0,0,0,0,0,0
	c0.3,0.3,0.7,0.3,1,0l5.6-5.3c0,0,0,0,0.1,0h0c0.1,0,0.1,0,0.1-0.1C20.1,16.2,20.1,15.8,19.9,15.6z"/>
</svg>
