<?xml version="1.0" encoding="utf-8"?>
<!-- Generator: Adobe Illustrator 22.0.0, SVG Export Plug-In . SVG Version: 6.00 Build 0)  -->
<svg version="1.1" id="Слой_1" xmlns="http://www.w3.org/2000/svg" xmlns:xlink="http://www.w3.org/1999/xlink" x="0px" y="0px"
	 viewBox="0 0 20 20" style="enable-background:new 0 0 20 20;" xml:space="preserve">
<style type="text/css">
	.st0{fill:#FFFFFF;}
</style>
<path class="st0" d="M19.8,8l-4.7,4.7l1.8,6.5c0,0,0,0.1,0,0.1c0,0,0,0,0,0.1c0,0,0,0.1,0,0.1c0,0,0,0.1,0,0.1c0,0,0,0.1-0.1,0.1
	c0,0,0,0,0,0c0,0,0,0,0,0c0,0,0,0,0,0c-0.1,0.1-0.2,0.1-0.3,0.2c-0.1,0-0.3,0-0.4,0c0,0,0,0-0.1,0c0,0-0.1,0-0.1-0.1
	c0,0-0.1,0-0.1-0.1L10,15.7l-5.8,4.1c0,0-0.1,0-0.1,0.1c0,0-0.1,0-0.1,0.1c0,0,0,0-0.1,0c-0.1,0-0.2,0.1-0.4,0
	c-0.1,0-0.2-0.1-0.3-0.2c0,0,0,0,0,0c0,0,0,0,0,0c0,0,0,0,0,0c0,0,0-0.1-0.1-0.1c0,0,0-0.1,0-0.1c0,0,0-0.1,0-0.1c0,0,0-0.1,0-0.1
	c0,0,0-0.1,0-0.1l1.8-6.5L0.2,8C0.1,7.9,0.1,7.8,0,7.8C0,7.5,0,7.3,0.2,7.1C0.3,7,0.5,6.9,0.6,6.9c0,0,0,0,0,0h5.3l3.6-6.6
	c0,0,0,0,0,0c0,0,0.1-0.1,0.1-0.1c0,0,0,0,0.1-0.1c0,0,0,0,0,0c0,0,0,0,0,0c0,0,0,0,0.1,0c0,0,0.1,0,0.1,0c0,0,0.1,0,0.1,0
	c0,0,0.1,0,0.1,0c0,0,0.1,0,0.1,0c0,0,0,0,0.1,0c0,0,0,0,0,0c0,0,0,0,0,0c0,0,0,0,0.1,0.1c0,0,0.1,0.1,0.1,0.1c0,0,0,0,0,0l3.6,6.6
	h5.3c0,0,0,0,0,0c0.2,0,0.3,0.1,0.4,0.2h0c0,0,0,0,0,0C19.9,7.2,20,7.4,20,7.5C20,7.7,19.9,7.9,19.8,8z M13.8,12.7
	c0-0.1,0-0.1,0-0.2c0,0,0,0,0,0c0-0.1,0-0.1,0-0.2c0,0,0,0,0,0c0-0.1,0.1-0.1,0.1-0.2c0,0,0,0,0,0l3.9-3.9h-4c-0.1,0-0.2,0-0.3,0
	c0,0,0,0,0,0c-0.1,0-0.1-0.1-0.2-0.1c0,0,0,0,0,0c0,0-0.1-0.1-0.1-0.1L10,1.9L6.8,7.9c0,0-0.1,0.1-0.1,0.1c0,0,0,0,0,0
	C6.6,8,6.6,8.1,6.5,8.1c0,0,0,0,0,0c-0.1,0-0.2,0.1-0.3,0h-4l3.9,3.9c0,0,0,0,0,0c0,0,0.1,0.1,0.1,0.2c0,0,0,0,0,0
	c0,0.1,0,0.1,0,0.2c0,0,0,0,0,0c0,0.1,0,0.1,0,0.2c0,0,0,0,0,0l-1.4,5.2l4.7-3.3c0.1-0.1,0.3-0.2,0.5-0.2c0.2,0,0.4,0,0.5,0.2
	l4.7,3.3L13.8,12.7C13.8,12.7,13.8,12.7,13.8,12.7z"/>
</svg>
